# 3ds Max Wavefront OBJ Exporter v0.97b - (c)2007 guruware
# File Created: 29.09.2016 01:42:34

#
# object Box001
#

v  -8.7637 0.0000 8.1252
v  -8.7637 0.0000 -8.9025
v  9.2372 0.0000 -8.9025
v  9.2372 0.0000 8.1252
v  -8.7637 18.4128 1.4130
v  9.2372 18.4128 1.4130
v  9.2372 18.4128 -2.1903
v  -8.7637 18.4128 -2.1903
v  9.2372 12.6927 8.1252
v  -8.7637 12.6927 8.1252
v  9.2372 12.6927 -8.9025
v  -8.7637 12.6927 -8.9025
v  9.2372 16.5527 5.3414
v  -8.7637 16.5527 5.3414
v  9.2372 16.5527 -6.1187
v  -8.7637 16.5527 -6.1187
# 16 vertices

vn 0.0000 -1.0000 -0.0000
vn 0.0000 0.9757 0.2193
vn 0.0000 0.9757 -0.2193
vn 0.0000 0.0000 1.0000
vn 0.0000 0.3073 0.9516
vn 1.0000 0.0000 -0.0000
vn 0.0000 0.0000 -1.0000
vn 0.0000 0.3073 -0.9516
vn -1.0000 0.0000 -0.0000
vn 0.0000 0.7686 0.6397
vn 0.0000 0.7686 -0.6397
# 11 vertex normals

vt 1.0000 0.0000 0.0000
vt 1.0000 1.0000 0.0000
vt 0.0000 1.0000 0.0000
vt 0.0000 -0.0000 0.0000
vt 0.0000 0.3942 1.0000
vt 1.0000 0.3942 1.0000
vt 1.0000 0.6058 1.0000
vt 0.0000 0.6058 1.0000
vt 0.0000 0.0000 0.0000
vt 1.0000 0.0000 -0.0000
vt 1.0000 0.6893 -0.0000
vt 0.0000 0.6893 0.0000
vt -0.0000 0.0000 1.0000
vt 1.0000 0.0000 1.0000
vt 1.0000 0.6893 1.0000
vt -0.0000 0.6893 1.0000
vt 0.0000 0.0000 1.0000
vt 0.0000 0.6893 1.0000
vt 1.0000 0.6893 0.0000
vt 1.0000 0.8990 0.1635
vt 0.0000 0.8990 0.1635
vt 0.8365 0.8990 1.0000
vt 0.1635 0.8990 1.0000
vt 1.0000 0.8990 0.8365
vt 0.0000 0.8990 0.8365
vt 0.8365 0.8990 0.0000
vt 0.1635 0.8990 0.0000
vt 0.0000 0.1635 0.8990
vt 1.0000 0.1635 0.8990
vt 0.6058 1.0000 1.0000
vt 0.3942 1.0000 1.0000
vt 1.0000 0.8365 0.8990
vt 0.0000 0.8365 0.8990
vt 0.6058 1.0000 0.0000
vt 0.3942 1.0000 0.0000
# 35 texture coords

g Box001
s 1
f 1/1/1 2/2/1 3/3/1 
f 3/3/1 4/4/1 1/1/1 
s 2
f 5/5/2 6/6/2 7/7/3 
f 7/7/3 8/8/3 5/5/2 
f 1/9/4 4/10/4 9/11/5 
f 9/11/5 10/12/5 1/9/4 
s 4
f 4/13/6 3/14/6 11/15/6 
f 11/15/6 9/16/6 4/13/6 
s 2
f 3/17/7 2/14/7 12/15/8 
f 12/15/8 11/18/8 3/17/7 
s 4
f 2/9/9 1/1/9 10/19/9 
f 10/19/9 12/12/9 2/9/9 
s 2
f 10/12/5 9/11/5 13/20/10 
f 13/20/10 14/21/10 10/12/5 
s 4
f 9/16/6 11/15/6 15/22/6 
f 15/22/6 13/23/6 9/16/6 
s 2
f 11/18/8 12/15/8 16/24/11 
f 16/24/11 15/25/11 11/18/8 
s 4
f 12/12/9 10/19/9 14/26/9 
f 14/26/9 16/27/9 12/12/9 
s 2
f 14/28/10 13/29/10 6/6/2 
f 6/6/2 5/5/2 14/28/10 
s 4
f 13/23/6 15/22/6 7/30/6 
f 7/30/6 6/31/6 13/23/6 
s 2
f 15/32/11 16/33/11 8/8/3 
f 8/8/3 7/7/3 15/32/11 
s 4
f 16/27/9 14/26/9 5/34/9 
f 5/34/9 8/35/9 16/27/9 
# 28 faces

